<?xml version="1.0" standalone="no"?>
<!DOCTYPE svg PUBLIC "-//W3C//DTD SVG 20010904//EN"
 "http://www.w3.org/TR/2001/REC-SVG-20010904/DTD/svg10.dtd">
<svg version="1.0" xmlns="http://www.w3.org/2000/svg"
 width="300.000000pt" height="300.000000pt" viewBox="0 0 300.000000 300.000000"
 preserveAspectRatio="xMidYMid meet">
<metadata>
Created by potrace 1.10, written by Peter Selinger 2001-2011
</metadata>
<g transform="translate(0.000000,300.000000) scale(0.100000,-0.100000)"
fill="#000000" stroke="none">
<path d="M1130 2085 c0 -53 -59 -125 -101 -125 -11 0 -19 -7 -19 -15 0 -12 17
-15 90 -15 l90 0 0 -85 0 -85 -35 0 c-24 0 -35 -5 -35 -15 0 -13 49 -15 385
-15 336 0 385 2 385 15 0 11 -12 15 -45 15 l-45 0 0 85 0 85 90 0 c97 0 117
13 60 39 -34 14 -70 75 -70 116 l0 25 -375 0 -375 0 0 -25z m732 -38 c6 -21
22 -49 34 -62 l23 -25 -416 0 -417 0 25 28 c14 15 32 43 41 62 l15 35 342 0
342 0 11 -38z m-377 -202 l0 -85 -132 0 -133 0 0 85 0 85 133 0 132 0 0 -85z
m285 0 l0 -85 -127 0 -128 0 0 85 0 85 128 0 127 0 0 -85z"/>
<path d="M824 1605 c0 -176 2 -247 3 -157 2 90 2 234 0 320 -1 86 -3 13 -3
-163z"/>
<path d="M2174 1605 c0 -176 2 -247 3 -157 2 90 2 234 0 320 -1 86 -3 13 -3
-163z"/>
<path d="M1140 1610 c0 -16 -7 -20 -35 -20 -19 0 -35 -4 -35 -10 0 -6 37 -10
90 -10 53 0 90 4 90 10 0 6 -20 10 -45 10 -38 0 -45 3 -45 20 0 11 -4 20 -10
20 -5 0 -10 -9 -10 -20z"/>
<path d="M1280 1628 c-1 -2 -2 -51 -3 -111 -1 -80 1 -107 11 -107 7 0 12 15
12 40 0 33 3 40 20 40 12 0 20 7 20 16 0 11 -6 15 -20 11 -18 -5 -20 0 -20 54
0 33 -4 59 -10 59 -5 0 -10 -1 -10 -2z"/>
<path d="M1910 1515 c0 -75 4 -114 10 -110 6 3 10 52 10 110 0 58 -4 107 -10
110 -6 4 -10 -35 -10 -110z"/>
<path d="M1420 1610 c0 -5 35 -10 78 -12 l77 -3 0 -40 0 -40 -102 3 c-89 3
-103 1 -103 -12 0 -13 12 -16 60 -16 57 0 60 -1 60 -25 0 -22 -4 -25 -40 -25
-76 0 -39 -19 43 -22 l82 -3 -3 -42 c-2 -33 1 -43 13 -43 12 0 15 12 15 55 l0
55 -45 0 c-41 0 -45 2 -45 25 0 24 2 25 65 25 53 0 65 3 65 16 0 11 -6 15 -20
11 -18 -5 -20 0 -20 49 l0 54 -90 0 c-51 0 -90 -4 -90 -10z"/>
<path d="M1731 1596 c-7 -8 -15 -30 -18 -49 -5 -30 -1 -40 22 -61 35 -33 69
-33 102 0 21 21 24 32 20 61 -8 50 -23 63 -72 63 -24 0 -48 -6 -54 -14z m91
-23 c23 -21 23 -48 -1 -72 -22 -22 -58 -18 -78 7 -41 51 30 110 79 65z"/>
<path d="M1100 1528 c-11 -12 -20 -30 -20 -39 0 -23 46 -59 75 -59 32 0 75 37
75 65 0 52 -91 75 -130 33z m91 -8 c26 -14 24 -36 -5 -55 -42 -28 -106 14 -76
50 14 17 53 20 81 5z"/>
<path d="M1750 1381 l0 -48 53 2 c115 4 127 5 127 15 0 6 -33 10 -80 10 l-80
0 0 35 c0 19 -4 35 -10 35 -5 0 -10 -22 -10 -49z"/>
<path d="M1120 1376 c0 -42 9 -45 109 -43 49 1 76 6 78 15 4 9 -17 12 -81 12
-85 0 -86 0 -86 25 0 14 -4 25 -10 25 -5 0 -10 -15 -10 -34z"/>
<path d="M800 1183 c-19 -24 -21 -38 -18 -104 2 -58 8 -82 22 -98 20 -22 60
-28 71 -11 5 8 11 7 21 -1 8 -6 16 -10 18 -8 2 2 6 37 8 77 l4 72 -36 0 -36 0
4 -65 c3 -44 1 -65 -7 -65 -16 0 -15 206 1 216 7 4 16 0 22 -10 36 -59 51 -62
40 -8 -6 30 -9 32 -50 32 -35 0 -47 -5 -64 -27z"/>
<path d="M1365 1186 c-18 -19 -20 -33 -17 -124 l3 -102 35 0 c31 0 34 2 24 19
-15 29 -13 168 3 175 10 5 10 7 0 12 -7 3 -13 14 -13 25 0 24 -10 23 -35 -5z"/>
<path d="M1525 1085 l0 -125 83 0 c79 0 82 1 72 19 -14 28 -13 204 2 219 9 9
-7 12 -72 12 l-85 0 0 -125z m95 59 c0 -32 -4 -44 -15 -44 -11 0 -15 11 -15
43 0 24 3 47 6 50 14 14 24 -6 24 -49z m0 -98 c0 -24 -3 -51 -6 -60 -12 -30
-24 -5 -24 50 0 41 4 54 15 54 11 0 15 -12 15 -44z"/>
<path d="M948 1078 c2 -51 8 -98 12 -103 5 -6 37 -11 70 -12 52 -2 61 0 56 13
-3 9 -6 56 -6 105 l0 89 -27 0 -28 0 3 -90 c3 -77 2 -90 -12 -90 -13 0 -16 14
-16 90 l0 90 -27 0 -28 0 3 -92z"/>
<path d="M1134 1162 c-39 -26 -47 -133 -13 -176 11 -14 31 -26 43 -26 26 0 56
29 56 53 0 26 -19 20 -30 -9 -15 -37 -35 -24 -38 26 l-3 43 37 -6 37 -6 -6 40
c-3 22 -11 46 -17 54 -13 16 -48 20 -66 7z m36 -26 c0 -8 3 -21 6 -30 4 -11 1
-16 -10 -16 -11 0 -16 9 -16 30 0 17 5 30 10 30 6 0 10 -6 10 -14z"/>
<path d="M1246 1163 c-14 -14 -4 -71 19 -112 31 -53 34 -88 6 -53 -25 29 -33
28 -29 -5 3 -25 7 -28 38 -28 29 0 36 5 45 29 8 24 5 37 -23 88 -34 63 -35 83
-4 55 25 -23 30 -21 25 6 -4 19 -12 24 -38 25 -18 1 -35 -2 -39 -5z"/>
<path d="M1725 1156 c-15 -11 -20 -29 -23 -82 -3 -60 -1 -72 18 -91 26 -29 61
-29 86 -2 14 16 19 36 19 84 0 48 -5 68 -19 84 -22 24 -54 27 -81 7z m50 -91
c0 -54 -4 -80 -12 -82 -10 -4 -13 17 -13 82 0 65 3 86 13 83 8 -3 12 -29 12
-83z"/>
<path d="M1848 1078 c2 -51 8 -98 12 -103 5 -6 37 -11 70 -12 52 -2 61 0 56
13 -3 9 -6 56 -6 105 l0 89 -27 0 -28 0 3 -90 c3 -77 2 -90 -12 -90 -13 0 -16
14 -16 90 l0 90 -27 0 -28 0 3 -92z"/>
<path d="M2006 1163 c-15 -15 -4 -81 19 -118 13 -22 25 -46 25 -52 0 -20 -18
-15 -25 7 -9 30 -25 24 -25 -9 0 -27 3 -29 35 -29 62 0 68 48 17 136 -24 42
-22 74 2 39 19 -24 34 -21 29 6 -4 19 -12 24 -38 25 -18 1 -35 -2 -39 -5z"/>
<path d="M2127 1152 c-54 -59 -20 -192 48 -192 26 0 62 41 50 60 -11 17 -23
11 -27 -12 -6 -42 -33 -27 -36 21 -3 40 -2 43 18 38 37 -10 50 1 43 36 -11 62
-61 87 -96 49z m53 -32 c0 -20 -5 -30 -15 -30 -17 0 -18 4 -9 38 9 32 24 27
24 -8z"/>
<path d="M1463 1093 c-31 -4 -41 -20 -30 -50 2 -9 49 -4 58 5 11 12 21 52 12
50 -4 0 -23 -3 -40 -5z"/>
</g>
</svg>
